<svg version="1.2" preserveAspectRatio="xMidYMid meet" viewBox="82.5 155.999996256 196.5 56.24999865" zoomAndPan="magnify" xmlns:xlink="http://www.w3.org/1999/xlink" xmlns="http://www.w3.org/2000/svg" style="max-height: 500px" width="196.5" height="56.24999865"><defs><clipPath id="f522a37a14"><path d="M 258 158 L 275 158 L 275 174 L 258 174 Z M 258 158"/></clipPath><clipPath id="c79fe0b213"><path d="M 258.042969 160.859375 L 270.230469 152.117188 L 278.972656 164.308594 L 266.785156 173.050781 Z M 258.042969 160.859375"/></clipPath><clipPath id="efeb1ecddc"><path d="M 258.042969 160.859375 L 270.230469 152.117188 L 278.972656 164.308594 L 266.785156 173.050781 Z M 258.042969 160.859375"/></clipPath></defs><g id="2258640d1a"><g clip-path="url(#f522a37a14)" clip-rule="nonzero"><g clip-path="url(#c79fe0b213)" clip-rule="nonzero"><g clip-path="url(#efeb1ecddc)" clip-rule="nonzero"><path d="M 258.089844 160.824219 L 274.253906 158.382812 L 266.785156 173.050781 C 266.28125 168.308594 265.304688 163.699219 258.089844 160.824219 Z M 258.089844 160.824219" style="stroke:none;fill-rule:nonzero;fill:#f32c36;fill-opacity:1;"/></g></g></g><g style="fill:#373643;fill-opacity:1;"><g transform="translate(84.550048, 189.791868)"><path d="M 22.25 -24.25 C 23.082031 -24.25 23.75 -23.976562 24.25 -23.4375 C 24.757812 -22.90625 25.015625 -22.273438 25.015625 -21.546875 L 25.015625 -1.484375 C 25.015625 0.835938 24.472656 2.789062 23.390625 4.375 C 22.316406 5.96875 20.875 7.160156 19.0625 7.953125 C 17.25 8.753906 15.234375 9.15625 13.015625 9.15625 C 11.171875 9.15625 9.5 8.914062 8 8.4375 C 6.507812 7.957031 5.113281 7.113281 3.8125 5.90625 C 3.175781 5.269531 2.875 4.617188 2.90625 3.953125 C 2.9375 3.285156 3.191406 2.710938 3.671875 2.234375 C 4.148438 1.765625 4.726562 1.492188 5.40625 1.421875 C 6.09375 1.359375 6.753906 1.613281 7.390625 2.1875 C 8.367188 3.050781 9.28125 3.609375 10.125 3.859375 C 10.96875 4.109375 11.929688 4.234375 13.015625 4.234375 C 14.148438 4.234375 15.226562 4.035156 16.25 3.640625 C 17.269531 3.242188 18.097656 2.617188 18.734375 1.765625 C 19.367188 0.910156 19.6875 -0.171875 19.6875 -1.484375 L 19.6875 -1.90625 C 18.601562 -1.113281 17.425781 -0.515625 16.15625 -0.109375 C 14.882812 0.285156 13.691406 0.484375 12.578125 0.484375 C 10.296875 0.484375 8.285156 -0.0390625 6.546875 -1.09375 C 4.816406 -2.144531 3.46875 -3.625 2.5 -5.53125 C 1.53125 -7.4375 1.046875 -9.660156 1.046875 -12.203125 C 1.046875 -14.679688 1.535156 -16.859375 2.515625 -18.734375 C 3.503906 -20.609375 4.878906 -22.078125 6.640625 -23.140625 C 8.410156 -24.203125 10.453125 -24.734375 12.765625 -24.734375 C 13.847656 -24.734375 15 -24.570312 16.21875 -24.25 C 17.445312 -23.9375 18.601562 -23.382812 19.6875 -22.59375 C 20.03125 -23.695312 20.882812 -24.25 22.25 -24.25 Z M 12.71875 -4.34375 C 14.1875 -4.34375 15.578125 -4.660156 16.890625 -5.296875 C 18.210938 -5.929688 19.128906 -6.882812 19.640625 -8.15625 L 19.640625 -16.109375 C 19.035156 -17.316406 18.117188 -18.253906 16.890625 -18.921875 C 15.671875 -19.585938 14.425781 -19.921875 13.15625 -19.921875 C 11.15625 -19.921875 9.539062 -19.1875 8.3125 -17.71875 C 7.09375 -16.257812 6.484375 -14.40625 6.484375 -12.15625 C 6.484375 -9.800781 7.050781 -7.910156 8.1875 -6.484375 C 9.332031 -5.054688 10.84375 -4.34375 12.71875 -4.34375 Z M 12.71875 -4.34375" style="stroke:none"/></g></g><g style="fill:#373643;fill-opacity:1;"><g transform="translate(112.192827, 189.791868)"><path d="M 22.15625 -24.25 C 22.988281 -24.25 23.648438 -24.019531 24.140625 -23.5625 C 24.628906 -23.101562 24.875 -22.507812 24.875 -21.78125 L 24.875 -2.484375 C 24.875 -1.742188 24.628906 -1.144531 24.140625 -0.6875 C 23.648438 -0.226562 22.988281 0 22.15625 0 C 21.363281 0 20.742188 -0.179688 20.296875 -0.546875 C 19.859375 -0.910156 19.585938 -1.394531 19.484375 -2 C 18.410156 -1.144531 17.207031 -0.515625 15.875 -0.109375 C 14.539062 0.285156 13.269531 0.484375 12.0625 0.484375 C 9.769531 0.484375 7.789062 -0.0390625 6.125 -1.09375 C 4.457031 -2.144531 3.175781 -3.625 2.28125 -5.53125 C 1.394531 -7.4375 0.953125 -9.660156 0.953125 -12.203125 C 0.953125 -14.679688 1.441406 -16.859375 2.421875 -18.734375 C 3.410156 -20.609375 4.785156 -22.078125 6.546875 -23.140625 C 8.316406 -24.203125 10.359375 -24.734375 12.671875 -24.734375 C 13.691406 -24.734375 14.820312 -24.539062 16.0625 -24.15625 C 17.300781 -23.78125 18.441406 -23.175781 19.484375 -22.34375 C 19.617188 -22.914062 19.90625 -23.375 20.34375 -23.71875 C 20.789062 -24.070312 21.394531 -24.25 22.15625 -24.25 Z M 12.625 -4.34375 C 14.019531 -4.34375 15.367188 -4.648438 16.671875 -5.265625 C 17.984375 -5.890625 18.90625 -6.800781 19.4375 -8 L 19.4375 -16.25 C 18.832031 -17.425781 17.925781 -18.332031 16.71875 -18.96875 C 15.519531 -19.601562 14.300781 -19.921875 13.0625 -19.921875 C 11.0625 -19.921875 9.445312 -19.1875 8.21875 -17.71875 C 7 -16.257812 6.390625 -14.40625 6.390625 -12.15625 C 6.390625 -9.800781 6.957031 -7.910156 8.09375 -6.484375 C 9.238281 -5.054688 10.75 -4.34375 12.625 -4.34375 Z M 12.625 -4.34375" style="stroke:none"/></g></g><g style="fill:#373643;fill-opacity:1;"><g transform="translate(139.740276, 189.791868)"><path d="M 22.203125 -30.828125 C 22.867188 -30.828125 23.492188 -30.632812 24.078125 -30.25 C 24.671875 -29.875 24.96875 -29.273438 24.96875 -28.453125 L 24.96875 -2.4375 C 24.96875 -0.8125 24.046875 0 22.203125 0 C 20.554688 0 19.703125 -0.757812 19.640625 -2.28125 C 18.617188 -1.394531 17.472656 -0.722656 16.203125 -0.265625 C 14.929688 0.191406 13.722656 0.421875 12.578125 0.421875 C 10.191406 0.421875 8.132812 -0.113281 6.40625 -1.1875 C 4.675781 -2.269531 3.347656 -3.78125 2.421875 -5.71875 C 1.503906 -7.65625 1.046875 -9.878906 1.046875 -12.390625 C 1.046875 -14.804688 1.535156 -16.9375 2.515625 -18.78125 C 3.503906 -20.625 4.878906 -22.078125 6.640625 -23.140625 C 8.410156 -24.203125 10.453125 -24.734375 12.765625 -24.734375 C 13.816406 -24.734375 14.945312 -24.523438 16.15625 -24.109375 C 17.363281 -23.703125 18.492188 -23.082031 19.546875 -22.25 L 19.546875 -28.453125 C 19.546875 -29.273438 19.820312 -29.875 20.375 -30.25 C 20.925781 -30.632812 21.535156 -30.828125 22.203125 -30.828125 Z M 12.71875 -4.390625 C 14.3125 -4.390625 15.75 -4.742188 17.03125 -5.453125 C 18.320312 -6.171875 19.191406 -7.210938 19.640625 -8.578125 L 19.59375 -15.921875 C 19.050781 -17.222656 18.164062 -18.210938 16.9375 -18.890625 C 15.71875 -19.578125 14.457031 -19.921875 13.15625 -19.921875 C 11.15625 -19.921875 9.539062 -19.195312 8.3125 -17.75 C 7.09375 -16.300781 6.484375 -14.5 6.484375 -12.34375 C 6.484375 -10.019531 7.050781 -8.113281 8.1875 -6.625 C 9.332031 -5.132812 10.84375 -4.390625 12.71875 -4.390625 Z M 12.71875 -4.390625" style="stroke:none"/></g></g><g style="fill:#373643;fill-opacity:1;"><g transform="translate(167.33539, 189.791868)"><path d="M 22.25 -24.25 C 23.082031 -24.25 23.75 -23.976562 24.25 -23.4375 C 24.757812 -22.90625 25.015625 -22.273438 25.015625 -21.546875 L 25.015625 -1.484375 C 25.015625 0.835938 24.472656 2.789062 23.390625 4.375 C 22.316406 5.96875 20.875 7.160156 19.0625 7.953125 C 17.25 8.753906 15.234375 9.15625 13.015625 9.15625 C 11.171875 9.15625 9.5 8.914062 8 8.4375 C 6.507812 7.957031 5.113281 7.113281 3.8125 5.90625 C 3.175781 5.269531 2.875 4.617188 2.90625 3.953125 C 2.9375 3.285156 3.191406 2.710938 3.671875 2.234375 C 4.148438 1.765625 4.726562 1.492188 5.40625 1.421875 C 6.09375 1.359375 6.753906 1.613281 7.390625 2.1875 C 8.367188 3.050781 9.28125 3.609375 10.125 3.859375 C 10.96875 4.109375 11.929688 4.234375 13.015625 4.234375 C 14.148438 4.234375 15.226562 4.035156 16.25 3.640625 C 17.269531 3.242188 18.097656 2.617188 18.734375 1.765625 C 19.367188 0.910156 19.6875 -0.171875 19.6875 -1.484375 L 19.6875 -1.90625 C 18.601562 -1.113281 17.425781 -0.515625 16.15625 -0.109375 C 14.882812 0.285156 13.691406 0.484375 12.578125 0.484375 C 10.296875 0.484375 8.285156 -0.0390625 6.546875 -1.09375 C 4.816406 -2.144531 3.46875 -3.625 2.5 -5.53125 C 1.53125 -7.4375 1.046875 -9.660156 1.046875 -12.203125 C 1.046875 -14.679688 1.535156 -16.859375 2.515625 -18.734375 C 3.503906 -20.609375 4.878906 -22.078125 6.640625 -23.140625 C 8.410156 -24.203125 10.453125 -24.734375 12.765625 -24.734375 C 13.847656 -24.734375 15 -24.570312 16.21875 -24.25 C 17.445312 -23.9375 18.601562 -23.382812 19.6875 -22.59375 C 20.03125 -23.695312 20.882812 -24.25 22.25 -24.25 Z M 12.71875 -4.34375 C 14.1875 -4.34375 15.578125 -4.660156 16.890625 -5.296875 C 18.210938 -5.929688 19.128906 -6.882812 19.640625 -8.15625 L 19.640625 -16.109375 C 19.035156 -17.316406 18.117188 -18.253906 16.890625 -18.921875 C 15.671875 -19.585938 14.425781 -19.921875 13.15625 -19.921875 C 11.15625 -19.921875 9.539062 -19.1875 8.3125 -17.71875 C 7.09375 -16.257812 6.484375 -14.40625 6.484375 -12.15625 C 6.484375 -9.800781 7.050781 -7.910156 8.1875 -6.484375 C 9.332031 -5.054688 10.84375 -4.34375 12.71875 -4.34375 Z M 12.71875 -4.34375" style="stroke:none"/></g></g><g style="fill:#373643;fill-opacity:1;"><g transform="translate(194.978168, 189.791868)"><path d="M 13.625 -4.234375 C 14.550781 -4.234375 15.457031 -4.359375 16.34375 -4.609375 C 17.238281 -4.867188 18.066406 -5.300781 18.828125 -5.90625 C 19.554688 -6.570312 20.269531 -6.878906 20.96875 -6.828125 C 21.664062 -6.785156 22.242188 -6.535156 22.703125 -6.078125 C 23.171875 -5.617188 23.40625 -5.046875 23.40625 -4.359375 C 23.40625 -3.679688 23.070312 -3.023438 22.40625 -2.390625 C 21.289062 -1.304688 19.96875 -0.546875 18.4375 -0.109375 C 16.914062 0.316406 15.359375 0.515625 13.765625 0.484375 C 11.296875 0.484375 9.113281 -0.0234375 7.21875 -1.046875 C 5.332031 -2.066406 3.851562 -3.476562 2.78125 -5.28125 C 1.71875 -7.09375 1.1875 -9.191406 1.1875 -11.578125 C 1.1875 -14.179688 1.691406 -16.46875 2.703125 -18.4375 C 3.722656 -20.40625 5.160156 -21.945312 7.015625 -23.0625 C 8.878906 -24.175781 11.082031 -24.734375 13.625 -24.734375 C 16.164062 -24.734375 18.328125 -24.21875 20.109375 -23.1875 C 21.890625 -22.15625 23.25 -20.707031 24.1875 -18.84375 C 25.125 -16.988281 25.59375 -14.820312 25.59375 -12.34375 C 25.59375 -11.550781 25.429688 -10.875 25.109375 -10.3125 C 24.796875 -9.757812 23.957031 -9.484375 22.59375 -9.484375 L 6.71875 -9.484375 C 7.164062 -7.929688 8.007812 -6.664062 9.25 -5.6875 C 10.488281 -4.71875 11.945312 -4.234375 13.625 -4.234375 Z M 13.671875 -20.015625 C 11.828125 -20.015625 10.285156 -19.429688 9.046875 -18.265625 C 7.816406 -17.109375 7.023438 -15.59375 6.671875 -13.71875 L 20.546875 -13.71875 C 20.378906 -15.59375 19.753906 -17.109375 18.671875 -18.265625 C 17.597656 -19.429688 15.929688 -20.015625 13.671875 -20.015625 Z M 13.671875 -20.015625" style="stroke:none"/></g></g><g style="fill:#373643;fill-opacity:1;"><g transform="translate(222.6686, 189.791868)"><path d="M 13.109375 -4.53125 C 13.835938 -4.9375 14.492188 -5.078125 15.078125 -4.953125 C 15.671875 -4.828125 16.148438 -4.550781 16.515625 -4.125 C 16.878906 -3.695312 17.0625 -3.195312 17.0625 -2.625 C 17.0625 -2.207031 16.929688 -1.789062 16.671875 -1.375 C 16.421875 -0.96875 16.023438 -0.617188 15.484375 -0.328125 C 14.785156 0.046875 14.148438 0.273438 13.578125 0.359375 C 13.003906 0.441406 12.335938 0.484375 11.578125 0.484375 C 9.515625 0.484375 7.925781 0.0546875 6.8125 -0.796875 C 5.695312 -1.660156 4.929688 -2.773438 4.515625 -4.140625 C 4.109375 -5.515625 3.90625 -6.960938 3.90625 -8.484375 L 3.90625 -19.734375 L 2.09375 -19.734375 C 1.207031 -19.734375 0.546875 -19.96875 0.109375 -20.4375 C -0.316406 -20.914062 -0.53125 -21.425781 -0.53125 -21.96875 C -0.53125 -22.539062 -0.304688 -23.0625 0.140625 -23.53125 C 0.585938 -24.007812 1.238281 -24.25 2.09375 -24.25 L 3.90625 -24.25 L 3.90625 -28.359375 C 3.90625 -29.179688 4.175781 -29.796875 4.71875 -30.203125 C 5.257812 -30.617188 5.878906 -30.828125 6.578125 -30.828125 C 7.242188 -30.828125 7.863281 -30.617188 8.4375 -30.203125 C 9.007812 -29.796875 9.296875 -29.179688 9.296875 -28.359375 L 9.296875 -24.25 L 13.015625 -24.25 C 13.835938 -24.25 14.46875 -24.007812 14.90625 -23.53125 C 15.351562 -23.0625 15.578125 -22.539062 15.578125 -21.96875 C 15.578125 -21.394531 15.351562 -20.878906 14.90625 -20.421875 C 14.46875 -19.960938 13.835938 -19.734375 13.015625 -19.734375 L 9.296875 -19.734375 L 9.296875 -8.484375 C 9.296875 -7.785156 9.34375 -7.109375 9.4375 -6.453125 C 9.53125 -5.804688 9.742188 -5.265625 10.078125 -4.828125 C 10.410156 -4.398438 10.910156 -4.1875 11.578125 -4.1875 C 11.835938 -4.1875 12.117188 -4.226562 12.421875 -4.3125 C 12.722656 -4.394531 12.953125 -4.46875 13.109375 -4.53125 Z M 13.109375 -4.53125" style="stroke:none"/></g></g><g style="fill:#373643;fill-opacity:1;"><g transform="translate(239.206559, 189.791868)"><path d="M 0.625 -5.671875 C 0.394531 -6.554688 0.597656 -7.269531 1.234375 -7.8125 C 1.867188 -8.351562 2.570312 -8.625 3.34375 -8.625 C 3.90625 -8.625 4.410156 -8.457031 4.859375 -8.125 C 5.304688 -7.789062 5.640625 -7.289062 5.859375 -6.625 C 6.046875 -6.050781 6.457031 -5.582031 7.09375 -5.21875 C 7.726562 -4.851562 8.46875 -4.585938 9.3125 -4.421875 C 10.15625 -4.265625 11.003906 -4.1875 11.859375 -4.1875 C 13.578125 -4.1875 14.957031 -4.492188 16 -5.109375 C 17.050781 -5.734375 17.578125 -6.523438 17.578125 -7.484375 C 17.578125 -8.148438 17.300781 -8.640625 16.75 -8.953125 C 16.195312 -9.273438 15.46875 -9.5 14.5625 -9.625 C 13.65625 -9.75 12.691406 -9.84375 11.671875 -9.90625 C 10.335938 -10.039062 9.023438 -10.203125 7.734375 -10.390625 C 6.453125 -10.578125 5.285156 -10.898438 4.234375 -11.359375 C 3.191406 -11.828125 2.351562 -12.515625 1.71875 -13.421875 C 1.082031 -14.328125 0.765625 -15.554688 0.765625 -17.109375 C 0.765625 -18.628906 1.207031 -19.960938 2.09375 -21.109375 C 2.988281 -22.253906 4.242188 -23.144531 5.859375 -23.78125 C 7.484375 -24.414062 9.359375 -24.734375 11.484375 -24.734375 C 12.722656 -24.734375 14.054688 -24.613281 15.484375 -24.375 C 16.921875 -24.132812 18.25 -23.648438 19.46875 -22.921875 C 20.6875 -22.191406 21.582031 -21.066406 22.15625 -19.546875 C 22.382812 -18.910156 22.367188 -18.34375 22.109375 -17.84375 C 21.859375 -17.351562 21.484375 -16.976562 20.984375 -16.71875 C 20.492188 -16.46875 19.992188 -16.34375 19.484375 -16.34375 C 18.921875 -16.34375 18.453125 -16.453125 18.078125 -16.671875 C 17.710938 -16.898438 17.40625 -17.285156 17.15625 -17.828125 C 16.875 -18.492188 16.390625 -18.984375 15.703125 -19.296875 C 15.015625 -19.617188 14.28125 -19.816406 13.5 -19.890625 C 12.726562 -19.972656 12.054688 -20.015625 11.484375 -20.015625 C 9.898438 -20.015625 8.625 -19.742188 7.65625 -19.203125 C 6.6875 -18.660156 6.203125 -17.945312 6.203125 -17.0625 C 6.203125 -16.300781 6.453125 -15.785156 6.953125 -15.515625 C 7.460938 -15.242188 8.15625 -15.082031 9.03125 -15.03125 C 9.90625 -14.988281 10.882812 -14.90625 11.96875 -14.78125 C 13.300781 -14.613281 14.617188 -14.4375 15.921875 -14.25 C 17.222656 -14.0625 18.410156 -13.734375 19.484375 -13.265625 C 20.566406 -12.804688 21.425781 -12.125 22.0625 -11.21875 C 22.695312 -10.3125 23.015625 -9.066406 23.015625 -7.484375 C 23.015625 -5.921875 22.546875 -4.535156 21.609375 -3.328125 C 20.671875 -2.128906 19.367188 -1.191406 17.703125 -0.515625 C 16.035156 0.148438 14.085938 0.484375 11.859375 0.484375 C 10.878906 0.484375 9.804688 0.410156 8.640625 0.265625 C 7.484375 0.117188 6.359375 -0.164062 5.265625 -0.59375 C 4.171875 -1.019531 3.207031 -1.640625 2.375 -2.453125 C 1.550781 -3.265625 0.96875 -4.335938 0.625 -5.671875 Z M 0.625 -5.671875" style="stroke:none"/></g></g><g style="fill:#f32c36;fill-opacity:1;"><g transform="translate(198.60446, 205.6505)"><path d="M 4.796875 1.875 C 5.347656 1.875 5.8125 1.695312 6.1875 1.34375 C 6.5625 1 6.75 0.570312 6.75 0.0625 L 6.75 -0.609375 C 6.570312 -0.359375 6.28125 -0.160156 5.875 -0.015625 C 5.46875 0.117188 5.066406 0.1875 4.671875 0.1875 C 3.898438 0.1875 3.195312 -0.015625 2.5625 -0.421875 C 1.9375 -0.828125 1.429688 -1.363281 1.046875 -2.03125 C 0.671875 -2.695312 0.484375 -3.4375 0.484375 -4.25 C 0.484375 -5.070312 0.675781 -5.820312 1.0625 -6.5 C 1.445312 -7.175781 1.957031 -7.710938 2.59375 -8.109375 C 3.226562 -8.503906 3.921875 -8.703125 4.671875 -8.703125 C 5.054688 -8.703125 5.453125 -8.625 5.859375 -8.46875 C 6.273438 -8.3125 6.570312 -8.132812 6.75 -7.9375 L 6.75 -8.515625 L 9.140625 -8.515625 L 9.140625 -0.078125 C 9.140625 0.703125 8.945312 1.421875 8.5625 2.078125 C 8.175781 2.742188 7.648438 3.269531 6.984375 3.65625 C 6.328125 4.050781 5.597656 4.25 4.796875 4.25 C 4.035156 4.25 3.335938 4.070312 2.703125 3.71875 C 2.066406 3.363281 1.554688 2.894531 1.171875 2.3125 L 3.109375 0.90625 C 3.285156 1.195312 3.519531 1.429688 3.8125 1.609375 C 4.113281 1.785156 4.441406 1.875 4.796875 1.875 Z M 4.90625 -2.1875 C 5.46875 -2.1875 5.929688 -2.378906 6.296875 -2.765625 C 6.660156 -3.148438 6.84375 -3.644531 6.84375 -4.25 C 6.84375 -4.84375 6.660156 -5.332031 6.296875 -5.71875 C 5.929688 -6.113281 5.46875 -6.3125 4.90625 -6.3125 C 4.351562 -6.3125 3.882812 -6.113281 3.5 -5.71875 C 3.113281 -5.332031 2.921875 -4.84375 2.921875 -4.25 C 2.921875 -3.644531 3.113281 -3.148438 3.5 -2.765625 C 3.882812 -2.378906 4.351562 -2.1875 4.90625 -2.1875 Z M 4.90625 -2.1875" style="stroke:none"/></g></g><g style="fill:#f32c36;fill-opacity:1;"><g transform="translate(207.952955, 205.6505)"><path d="M 5.71875 -8.671875 L 5.71875 -6.1875 C 5.5 -6.269531 5.25 -6.3125 4.96875 -6.3125 C 4.5 -6.3125 4.09375 -6.140625 3.75 -5.796875 C 3.40625 -5.453125 3.234375 -4.9375 3.234375 -4.25 L 3.234375 0 L 0.84375 0 L 0.84375 -8.515625 L 3.234375 -8.515625 L 3.234375 -7.9375 C 3.492188 -8.21875 3.789062 -8.414062 4.125 -8.53125 C 4.46875 -8.644531 4.800781 -8.703125 5.125 -8.703125 C 5.226562 -8.703125 5.320312 -8.703125 5.40625 -8.703125 C 5.5 -8.703125 5.601562 -8.691406 5.71875 -8.671875 Z M 5.71875 -8.671875" style="stroke:none"/></g></g><g style="fill:#f32c36;fill-opacity:1;"><g transform="translate(213.251443, 205.6505)"><path d="M 2.03125 -10.03125 C 1.65625 -10.03125 1.328125 -10.160156 1.046875 -10.421875 C 0.773438 -10.691406 0.640625 -11.015625 0.640625 -11.390625 C 0.640625 -11.722656 0.773438 -12.023438 1.046875 -12.296875 C 1.328125 -12.566406 1.65625 -12.703125 2.03125 -12.703125 C 2.425781 -12.703125 2.757812 -12.566406 3.03125 -12.296875 C 3.3125 -12.035156 3.453125 -11.734375 3.453125 -11.390625 C 3.453125 -11.015625 3.3125 -10.691406 3.03125 -10.421875 C 2.757812 -10.160156 2.425781 -10.03125 2.03125 -10.03125 Z M 3.234375 -8.515625 L 3.234375 0 L 0.84375 0 L 0.84375 -8.515625 Z M 3.234375 -8.515625" style="stroke:none"/></g></g><g style="fill:#f32c36;fill-opacity:1;"><g transform="translate(216.693677, 205.6505)"><path d="M 6.75 -12.578125 L 9.140625 -12.578125 L 9.140625 0 L 6.75 0 L 6.75 -0.609375 C 6.570312 -0.359375 6.28125 -0.160156 5.875 -0.015625 C 5.46875 0.117188 5.066406 0.1875 4.671875 0.1875 C 3.898438 0.1875 3.195312 -0.015625 2.5625 -0.421875 C 1.9375 -0.828125 1.429688 -1.363281 1.046875 -2.03125 C 0.671875 -2.695312 0.484375 -3.4375 0.484375 -4.25 C 0.484375 -5.070312 0.675781 -5.820312 1.0625 -6.5 C 1.445312 -7.175781 1.957031 -7.710938 2.59375 -8.109375 C 3.226562 -8.503906 3.921875 -8.703125 4.671875 -8.703125 C 5.054688 -8.703125 5.453125 -8.625 5.859375 -8.46875 C 6.273438 -8.3125 6.570312 -8.132812 6.75 -7.9375 Z M 4.90625 -2.1875 C 5.46875 -2.1875 5.929688 -2.378906 6.296875 -2.765625 C 6.660156 -3.148438 6.84375 -3.644531 6.84375 -4.25 C 6.84375 -4.84375 6.660156 -5.332031 6.296875 -5.71875 C 5.929688 -6.113281 5.46875 -6.3125 4.90625 -6.3125 C 4.351562 -6.3125 3.882812 -6.113281 3.5 -5.71875 C 3.113281 -5.332031 2.921875 -4.84375 2.921875 -4.25 C 2.921875 -3.644531 3.113281 -3.148438 3.5 -2.765625 C 3.882812 -2.378906 4.351562 -2.1875 4.90625 -2.1875 Z M 4.90625 -2.1875" style="stroke:none"/></g></g><g style="fill:#f32c36;fill-opacity:1;"><g transform="translate(226.042172, 205.6505)"><path d="M 2.3125 -2.359375 C 2.707031 -2.359375 3.019531 -2.234375 3.25 -1.984375 C 3.488281 -1.734375 3.609375 -1.425781 3.609375 -1.0625 C 3.609375 -0.71875 3.488281 -0.414062 3.25 -0.15625 C 3.019531 0.09375 2.707031 0.21875 2.3125 0.21875 C 1.925781 0.21875 1.613281 0.09375 1.375 -0.15625 C 1.132812 -0.414062 1.015625 -0.71875 1.015625 -1.0625 C 1.015625 -1.425781 1.132812 -1.734375 1.375 -1.984375 C 1.613281 -2.234375 1.925781 -2.359375 2.3125 -2.359375 Z M 2.3125 -2.359375" style="stroke:none"/></g></g><g style="fill:#f32c36;fill-opacity:1;"><g transform="translate(230.024406, 205.6505)"><path d="M 6.9375 -3.921875 L 9.40625 -3.921875 C 9.34375 -3.160156 9.101562 -2.46875 8.6875 -1.84375 C 8.269531 -1.21875 7.734375 -0.722656 7.078125 -0.359375 C 6.421875 0.00390625 5.695312 0.1875 4.90625 0.1875 C 4.300781 0.1875 3.726562 0.0703125 3.1875 -0.15625 C 2.65625 -0.382812 2.1875 -0.703125 1.78125 -1.109375 C 1.382812 -1.523438 1.066406 -2 0.828125 -2.53125 C 0.597656 -3.070312 0.484375 -3.644531 0.484375 -4.25 C 0.484375 -5.070312 0.679688 -5.820312 1.078125 -6.5 C 1.484375 -7.175781 2.019531 -7.710938 2.6875 -8.109375 C 3.363281 -8.503906 4.101562 -8.703125 4.90625 -8.703125 C 5.601562 -8.703125 6.253906 -8.550781 6.859375 -8.25 C 7.472656 -7.945312 7.988281 -7.539062 8.40625 -7.03125 L 6.5 -5.546875 C 6.28125 -5.828125 6.03125 -6.023438 5.75 -6.140625 C 5.476562 -6.253906 5.195312 -6.3125 4.90625 -6.3125 C 4.351562 -6.3125 3.882812 -6.113281 3.5 -5.71875 C 3.113281 -5.332031 2.921875 -4.84375 2.921875 -4.25 C 2.921875 -3.644531 3.113281 -3.148438 3.5 -2.765625 C 3.882812 -2.378906 4.351562 -2.1875 4.90625 -2.1875 C 5.4375 -2.1875 5.882812 -2.34375 6.25 -2.65625 C 6.625 -2.976562 6.851562 -3.398438 6.9375 -3.921875 Z M 6.9375 -3.921875" style="stroke:none"/></g></g><g style="fill:#f32c36;fill-opacity:1;"><g transform="translate(239.254775, 205.6505)"><path d="M 4.90625 -8.703125 C 5.519531 -8.703125 6.097656 -8.585938 6.640625 -8.359375 C 7.179688 -8.128906 7.65625 -7.804688 8.0625 -7.390625 C 8.476562 -6.984375 8.804688 -6.515625 9.046875 -5.984375 C 9.285156 -5.453125 9.40625 -4.875 9.40625 -4.25 C 9.40625 -3.644531 9.285156 -3.070312 9.046875 -2.53125 C 8.804688 -2 8.476562 -1.523438 8.0625 -1.109375 C 7.65625 -0.703125 7.179688 -0.382812 6.640625 -0.15625 C 6.097656 0.0703125 5.519531 0.1875 4.90625 0.1875 C 4.300781 0.1875 3.726562 0.0703125 3.1875 -0.15625 C 2.65625 -0.382812 2.1875 -0.703125 1.78125 -1.109375 C 1.382812 -1.523438 1.066406 -2 0.828125 -2.53125 C 0.597656 -3.070312 0.484375 -3.644531 0.484375 -4.25 C 0.484375 -5.070312 0.679688 -5.820312 1.078125 -6.5 C 1.484375 -7.175781 2.019531 -7.710938 2.6875 -8.109375 C 3.363281 -8.503906 4.101562 -8.703125 4.90625 -8.703125 Z M 4.90625 -2.1875 C 5.488281 -2.1875 5.972656 -2.378906 6.359375 -2.765625 C 6.753906 -3.148438 6.953125 -3.644531 6.953125 -4.25 C 6.953125 -4.84375 6.753906 -5.332031 6.359375 -5.71875 C 5.972656 -6.113281 5.488281 -6.3125 4.90625 -6.3125 C 4.351562 -6.3125 3.882812 -6.113281 3.5 -5.71875 C 3.113281 -5.332031 2.921875 -4.84375 2.921875 -4.25 C 2.921875 -3.644531 3.113281 -3.148438 3.5 -2.765625 C 3.882812 -2.378906 4.351562 -2.1875 4.90625 -2.1875 Z M 4.90625 -2.1875" style="stroke:none"/></g></g><g style="fill:#f32c36;fill-opacity:1;"><g transform="translate(248.502024, 205.6505)"><path d="M 9.15625 -4.25 L 9.15625 0 L 6.765625 0 L 6.765625 -4.25 C 6.765625 -4.976562 6.59375 -5.503906 6.25 -5.828125 C 5.90625 -6.148438 5.460938 -6.3125 4.921875 -6.3125 C 4.628906 -6.3125 4.351562 -6.21875 4.09375 -6.03125 C 3.84375 -5.84375 3.632812 -5.59375 3.46875 -5.28125 C 3.3125 -4.976562 3.234375 -4.632812 3.234375 -4.25 L 3.234375 0 L 0.84375 0 L 0.84375 -8.515625 L 3.234375 -8.515625 L 3.234375 -7.9375 C 3.429688 -8.164062 3.738281 -8.347656 4.15625 -8.484375 C 4.570312 -8.628906 4.960938 -8.703125 5.328125 -8.703125 C 5.960938 -8.703125 6.539062 -8.578125 7.0625 -8.328125 C 7.582031 -8.078125 7.96875 -7.753906 8.21875 -7.359375 C 8.488281 -7.710938 8.800781 -7.988281 9.15625 -8.1875 C 9.519531 -8.382812 9.882812 -8.519531 10.25 -8.59375 C 10.625 -8.664062 10.957031 -8.703125 11.25 -8.703125 C 12.132812 -8.703125 12.863281 -8.503906 13.4375 -8.109375 C 14.007812 -7.710938 14.4375 -7.175781 14.71875 -6.5 C 15 -5.820312 15.140625 -5.070312 15.140625 -4.25 L 15.140625 0 L 12.75 0 L 12.75 -4.25 C 12.75 -4.90625 12.578125 -5.410156 12.234375 -5.765625 C 11.898438 -6.128906 11.488281 -6.3125 11 -6.3125 C 10.476562 -6.3125 10.039062 -6.109375 9.6875 -5.703125 C 9.332031 -5.296875 9.15625 -4.8125 9.15625 -4.25 Z M 9.15625 -4.25" style="stroke:none"/></g></g></g></svg>